<?xml version="1.0" encoding="UTF-8"?>
<svg id="Camada_2" data-name="Camada 2" xmlns="http://www.w3.org/2000/svg" viewBox="0 0 91 28">
  <defs>
    <style>
      .cls-1 {
        fill: #000;
      }

      .cls-1, .cls-2 {
        stroke-width: 0px;
      }

      .cls-3 {
        isolation: isolate;
      }

      .cls-2 {
        fill: #fff;
      }
    </style>
  </defs>
  <g shape-rendering="crispEdges">
    <rect class="cls-1" width="91" height="28"/>
  </g>
  <g text-rendering="geometricPrecision">
    <g class="cls-3">
      <path class="cls-2" d="M36.76,17.37v-5.68h-2.24v-1.32h6.1v1.32h-2.24v5.68h-1.62Z"/>
      <path class="cls-2" d="M42.61,17.37l-1.94-5.38h1.47l1.61,4.63h-.71l1.68-4.63h1.33l1.62,4.63h-.68l1.65-4.63h1.38l-1.95,5.38h-1.5l-1.44-3.97h.45l-1.46,3.97h-1.51Z"/>
      <path class="cls-2" d="M51.53,11.23c-.29,0-.53-.08-.71-.25-.18-.17-.27-.37-.27-.62s.09-.45.27-.62c.18-.17.42-.25.71-.25s.52.08.71.24c.18.16.28.36.28.6,0,.26-.09.47-.27.65-.18.17-.42.25-.71.25ZM50.75,17.37v-5.38h1.56v5.38h-1.56Z"/>
      <path class="cls-2" d="M53.12,13.3v-1.2h3.73v1.2h-3.73ZM55.96,17.45c-.63,0-1.13-.16-1.48-.49s-.53-.8-.53-1.45v-4.72h1.57v4.69c0,.23.06.4.17.53.12.13.28.19.48.19.25,0,.47-.07.64-.2l.41,1.1c-.15.11-.34.2-.57.25-.22.06-.46.08-.7.08Z"/>
      <path class="cls-2" d="M57.47,13.3v-1.2h3.73v1.2h-3.73ZM60.31,17.45c-.63,0-1.13-.16-1.48-.49s-.53-.8-.53-1.45v-4.72h1.57v4.69c0,.23.06.4.18.53.12.13.28.19.47.19.25,0,.47-.07.64-.2l.41,1.1c-.15.11-.34.2-.57.25s-.46.08-.7.08Z"/>
      <path class="cls-2" d="M65.13,17.45c-.61,0-1.15-.12-1.61-.36-.46-.24-.82-.57-1.07-.99-.25-.42-.38-.89-.38-1.42s.12-1.01.36-1.43.58-.75,1.02-.98c.44-.24.93-.35,1.47-.35s1,.11,1.43.34c.42.23.76.55,1,.96.25.41.37.91.37,1.49,0,.06,0,.13-.01.21s-.01.15-.02.22h-4.37v-.91h3.55l-.61.27c0-.28-.05-.52-.16-.73-.11-.21-.27-.37-.47-.48s-.43-.17-.7-.17-.5.06-.71.17-.36.28-.47.49c-.11.21-.17.46-.17.75v.24c0,.3.07.56.2.78.13.22.32.39.55.5.23.12.51.18.84.18.28,0,.53-.04.75-.13.22-.09.42-.22.59-.39l.83.9c-.25.28-.56.5-.93.64-.37.15-.8.23-1.29.23Z"/>
      <path class="cls-2" d="M68.77,17.37v-5.38h1.49v1.53l-.21-.45c.16-.38.42-.67.77-.87.35-.2.78-.29,1.29-.29v1.45c-.06-.01-.12-.02-.17-.03-.06,0-.11,0-.17,0-.44,0-.79.12-1.05.37-.26.25-.39.63-.39,1.14v2.54h-1.56Z"/>
    </g>
  </g>
  <path class="cls-2" d="M24.74,13.2l3.9-4.44h-.92l-3.39,3.85-2.7-3.85h-3.12l4.09,5.83-4.09,4.65h.92l3.58-4.07,2.86,4.07h3.12M19.76,9.44h1.42l6.53,9.15h-1.42"/>
</svg>