<?xml version="1.0" encoding="UTF-8"?>
<svg id="_9" data-name=" 9" xmlns="http://www.w3.org/2000/svg" version="1.1" viewBox="0 0 1996.9 611">
  <defs>
    <style>
      .cls-1 {
        fill: #000;
      }

      .cls-1, .cls-2 {
        stroke-width: 0px;
      }

      .cls-2 {
        fill: #502781;
      }
    </style>
  </defs>
  <path class="cls-2" d="M282,556.7c-14.3,17.9-28.6,35.8-43.3,54.3-8.5-10.1-16.9-19.5-24.7-29.4-15.5-20-31.8-39.5-45.8-60.5-18.6-28.1-28.2-60-33.5-93.2-3.9-24.2-4.1-48.4-1.6-72.7,3-29.6,15.6-54.8,34.7-77,14-16.3,30.4-29.8,49.1-40.8-.6.8-1.2,1.5-1.9,2.3-.7.7-1.4,1.4-2.2,2.1-22.1,21.5-39.8,46.1-50.2,75.4-12.9,36.4-8.6,71.7,6.9,106.3,18.1,40.4,45.1,74,77.5,103.7,11.2,10.2,23.1,19.6,34.9,29.6h.1Z"/>
  <path class="cls-2" d="M146.4,491.8c-20.8,6.6-41.9,13.3-63.9,20.3-.9-5.8-1.8-11.1-2.5-16.4-4.4-33.9-8-68-4.9-102.1,8.1-89,50.3-154.6,134.7-189.8,21.2-8.8,43.5-13.5,66.3-15.7h2.4c-12.5,4.7-24.6,8.9-36.4,13.8-26,10.8-50.2,24.6-70.5,44.6-22.9,22.6-35.7,50.5-43.1,81.4-9.5,39.8-5.3,79.1,4.5,118,3.8,15.3,8.8,30.3,13.4,45.9h0Z"/>
  <path class="cls-2" d="M70.9,371.7c-23.4-4.4-46.7-8.8-70.9-13.3,1.7-3.8,3.1-7.1,4.7-10.3,19.6-41.3,43.5-79.8,74.6-113.4,36.2-39.1,80.3-63.6,133.1-71.9,45.3-7.2,88.5,0,129.7,19.8.7.4,1.5.8,2.1,1.2.2.1.3.5.4.7-10.9-1.7-21.9-4-32.9-5.1-45.7-4.9-89.8,0-130.6,22.6-28.4,15.7-51.3,37.4-67.2,65.9-15.1,27-29.5,54.4-38.6,84.2-1.9,6.3-2.9,12.9-4.3,19.6h0Z"/>
  <path class="cls-2" d="M75,232.2c-16.8-15.7-32.2-30-48.5-45.2,11-7.2,21.3-14.5,32-21,40.5-24.4,83.9-41.2,130.6-48.5,42.3-6.6,84.5-4.9,125.5,8.1,30.9,9.8,56.2,28.9,77,53.5,9.9,11.6,17.9,24.8,26.7,37.3.5.8.8,1.7.6,3-1-1.1-2.1-2.2-3.1-3.3-30.9-34-67.5-58.6-112.9-68.7-31.2-6.9-62.3-4.3-92.9,3.9-50.7,13.6-94,40-131.9,75.9-1.3,1.2-2,3.1-3.2,5.1h0Z"/>
  <path class="cls-2" d="M461,280.1c-4.8-24.3-12.8-47.4-24.1-69.5-25.4-49.6-66.1-79.4-119.5-92.8-53.2-13.4-106.5-12.3-159.8-.8-1,.2-1.9.5-3.6.9-2.3-22.2-4.7-44.1-7-66.7,2.1-.3,4.2-.8,6.2-.9,63.6-3.1,124.3,8.2,181,37.9,44.5,23.3,80.2,56.4,107.5,98.5,11.1,17,16.3,36.4,18.6,56.4,1.4,12.2,1.5,24.5,2.2,36.8-.5,0-1,.1-1.5.2Z"/>
  <path class="cls-2" d="M455.8,357.4c3.6-10.8,7.1-20.5,10.1-30.2,9-28.9,13.5-58.4,11.5-88.6-1.4-21.3-9.5-40.4-20.6-58.2-20-31.9-47.8-55.7-79.1-75.8-24.9-16-51.4-28.7-78.8-39.7-1.5-.6-3-1.3-5.1-2.2,10.3-20.7,20.5-41.2,31.2-62.6,12.1,7.3,24,13.9,35.3,21.3,39.1,25.7,73.1,56.8,99.4,95.8,22.5,33.2,36.9,69.5,41.7,109.5,4,32.5.2,63.8-15.2,93.1-6.3,12-14.3,22.8-24.3,32.2-1.8,1.7-3.7,3.2-6.3,5.6l.2-.2Z"/>
  <path class="cls-2" d="M407.7,411.9c33.5-21.4,62.4-47.6,85.5-79.7,16.4-22.8,22.9-48.6,22-76.7-1.3-40.1-12.6-77.1-33.5-111-11.5-18.7-24.8-36.3-37.2-54.4-.7-.9-1.2-1.9-2.3-3.6,19.2-13,38.3-25.8,58.1-39.2,5.9,12.4,11.9,24.1,17.1,36.1,15.2,34.7,26.7,70.7,31.8,108.3,5.3,38.9,4.5,77.6-11.8,114.3-18.7,42.1-46.3,76.1-89.4,95.4-12.8,5.7-26.2,9.4-40.2,10.5h-.1Z"/>
  <path class="cls-2" d="M347.5,440.5c1,.2,2,.2,3,.3,24.8,3.2,49.6,2.5,74.1-2.2,15.8-3.1,32-6,46.7-12.2,26.7-11.2,50.2-28.2,70.7-48.7,49.2-49.1,72.3-109.8,77.4-178.1.5-6.4,0-12.8,0-18.7h-66.5c.2,1.7.3,2.5.5,3.3,7.1,42.8,5.3,85-9.7,125.9-10.9,29.7-26.2,56.8-50.2,78.2-26.8,24-58.7,37.7-93.5,44.5-17.6,3.5-35.6,5.1-53.5,7.4l1,.2h0Z"/>
  <path class="cls-2" d="M592.7,316.4c19.9,11.4,39.4,22.6,59.7,34.2-5.9,6.7-11.1,13-16.7,18.9-36.6,39-78.3,71.3-127.7,92.7-38.8,16.8-79.2,25.7-121.6,20.6-43.5-5.2-83-19.9-115.5-50.5-2.2-2-4.7-3.7-7.1-5.6l1.4-1.7c1.4.7,2.7,1.3,4.1,2,31.6,16.7,64.7,29.1,100.2,33.9,44.2,5.9,85-4,122.3-28.4,42.8-28,73-67.1,98-110.9.9-1.6,1.8-3.1,2.9-5.1h0Z"/>
  <path class="cls-1" d="M1898,440.2c-2.7.3-4.8.7-6.9.7h-51.4c-5.3,0-8-1.9-9.6-6.9-6.8-21.1-14-42.1-20.8-63.3-1.9-6-4.9-8.3-11.5-8.3-31.8.3-63.7.3-95.5,0-6.4,0-9.6,1.9-11.5,8.1-6.8,21.1-14.3,42.1-21.1,63.2-1.7,5.3-4.7,7.2-10.1,7.2-17.1-.3-34.3-.3-51.4,0-5.3,0-6.4-1.6-4.7-6.8,28.8-84.9,57.9-169.8,86.1-255,6-18.2,16.8-28,35.5-28.2,19.5-.3,39,0,58.5,1.3,13.9.9,21.9,9.9,26.3,23.1,15.8,47.7,31.9,95.2,47.8,142.7,13,38.6,25.9,77,38.7,115.6.7,1.9,1.1,3.7,1.7,6.4h0v.2h0ZM1750,307.1h27.4c6.9,0,9.2-3.2,7.1-9.5-3.2-9.7-6.4-19.4-9.6-29.1-6.7-20.2-13.4-40.5-20.3-60.6-.7-2.1-2.7-3.7-4-5.6-1.7,1.7-3.5,3.5-5.1,5.3-.5.7-.8,1.6-1.1,2.4-10,30.2-20,60.2-30.2,90.4-1.9,5.5.3,6.8,5.2,6.7,10.3-.1,20.4,0,30.7,0h0Z"/>
  <path class="cls-1" d="M725.7,294.8v-135.5c0-6.6,3.4-9.9,10.1-9.9h135.5c15.2,0,30.2,1.7,44.3,7.9,25.1,10.9,38.1,31.2,43.1,57.1,4.3,21.9,4.1,43.8-1.2,65.6-8.5,34.8-31.6,55.7-67.7,57.9-29.5,2-59.1,1.2-88.7,1.5-11.5.1-11.5,0-11.5,11.9v81.4c0,6-1.6,8.3-7.9,8.1-16-.4-32-.4-48.1,0-6.5.3-8.1-2.4-8.1-8.5v-137.5h.2ZM838.9,202.1c-13.6,0-27.1.3-40.7,0-6.7-.3-8.4,2.3-8.4,8.5.3,22.7.3,45.4,0,68.1,0,6.5,2.3,8.5,8.5,8.4,26-.3,52.1,0,78.1,0s17.4-3.7,21.2-14.7c6.5-18.4,6.4-37.1,0-55.5-3.9-10.9-9.7-14.4-21.4-14.4h-37.4v-.4h.1Z"/>
  <path class="cls-1" d="M1491.1,358.5h-78.1c-8,0-10,2.7-7.3,10.3,3.2,8.8,10,14.6,18.3,17.2,8.9,2.8,18.6,5.1,27.9,5.3,33.4.7,66.8.4,100.1.1,5.6,0,8,1.5,7.7,7.5-.4,11.7-.3,23.6,0,35.4,0,4.4-1.3,6.7-6,6.7-38.5-.8-76.9-1.1-115.4-2.8-12.1-.5-24.6-4-36.3-8-25.9-8.8-42.3-26.7-48.3-53.9-4.8-22.3-5.6-44.6-.9-66.8,7.3-34.7,27.9-59,61.3-70.6,36.4-12.7,73.8-13.6,110.8-1.9,33.4,10.5,51.3,35,52.2,70.1.4,15,0,29.8.3,44.7,0,5.2-1.6,7.6-6.9,6.8h-79.4,0ZM1466.4,311.4h53.4c7.5,0,8.9-2,7.3-9.3-2.4-11.3-10.1-18.3-20.3-22.2-30.6-11.6-60.3-8.4-88.4,7.9-5.2,3.1-9.6,8.5-12.6,14-3.5,6.3-.8,9.5,6.4,9.6h54.2Z"/>
  <path class="cls-1" d="M1180.6,315.5c0,24.4-.4,49,0,73.4.4,15.9-6.4,27.2-19.4,35.5-14.2,9.2-29.9,13.6-46.3,15.8-33.2,4.5-66.1,3.9-97.7-8.9-6.3-2.5-12.1-6.4-17.8-10.4-9.9-7.1-14.6-17-14.6-29.2v-155.5c0-5.6,2.1-7.3,7.5-7.3,12.4.3,25,0,37.4,0s9.1.4,9.1,8.9v132.8c0,7.9,2.8,13,9.6,15.8,22.8,9.6,45.8,9.5,68.6,0,7.1-2.9,10.1-8.3,10-16.3-.3-44.1,0-88.1,0-132.2s0-8.8,0-8.8c0,0,3.5-.3,9.2-.3,12.3,0,24.4.3,36.7,0,5.9-.1,7.7,2.1,7.7,7.9-.3,26.3,0,52.5,0,78.8h0Z"/>
  <path class="cls-1" d="M1990.1,294.8v136.7c0,9.2,0,9.3-9.3,9.3-15.8,0-31.6-.1-47.4,0-5.5,0-7.5-2-7.5-7.3V156.6c0-5.6,2.1-7.3,7.5-7.2,16.4.3,33,.3,49.4,0,6.1,0,7.5,2.4,7.5,7.9v137.4h-.2Z"/>
  <path class="cls-1" d="M1214.9,356.8c0-22.7.8-45.4-.3-68.1-1.6-33.8,25.1-59.3,58.9-59.5h56.7c5.2,0,7.7,1.5,7.6,7.2-.3,11.7-.3,23.6,0,35.4,0,5.2-1.9,7.1-7.1,6.9-12-.3-24,0-36,0s-21.6,8.3-21.6,21.5v132c0,5.9-3,8.8-8.9,8.8h-40.1c-8.9,0-9.2-.3-9.2-9.5v-74.8h0Z"/>
</svg>