<?xml version="1.0" encoding="UTF-8"?>
<svg id="Camada_2" data-name="Camada 2" xmlns="http://www.w3.org/2000/svg" viewBox="0 0 91 28">
  <defs>
    <style>
      .cls-1 {
        isolation: isolate;
      }

      .cls-2 {
        fill: #5865f2;
      }

      .cls-2, .cls-3 {
        stroke-width: 0px;
      }

      .cls-3 {
        fill: #fff;
      }
    </style>
  </defs>
  <g shape-rendering="crispEdges">
    <rect class="cls-2" width="91" height="28"/>
  </g>
  <g text-rendering="geometricPrecision">
    <g class="cls-1">
      <path class="cls-3" d="M34.09,17.37v-7h3.18c.76,0,1.43.15,2.01.44s1.03.7,1.36,1.22c.33.52.49,1.14.49,1.85s-.16,1.32-.49,1.85c-.33.52-.78.93-1.36,1.22s-1.25.44-2.01.44h-3.18ZM35.72,16.04h1.47c.47,0,.87-.09,1.21-.26.34-.18.61-.43.8-.76.19-.33.29-.71.29-1.15s-.1-.83-.29-1.16c-.19-.33-.46-.58-.8-.75-.34-.18-.75-.27-1.21-.27h-1.47v4.36Z"/>
      <path class="cls-3" d="M43.02,11.23c-.29,0-.53-.08-.71-.25-.18-.17-.27-.37-.27-.62s.09-.45.27-.62c.18-.17.42-.25.71-.25s.52.08.71.24c.18.16.28.36.28.6,0,.26-.09.47-.27.65-.18.17-.42.25-.71.25ZM42.24,17.37v-5.38h1.56v5.38h-1.56Z"/>
      <path class="cls-3" d="M47.06,17.45c-.46,0-.9-.06-1.32-.17-.42-.11-.76-.25-1.01-.42l.51-1.11c.25.15.55.27.89.37.34.1.67.14.99.14.36,0,.62-.04.77-.13.15-.09.22-.21.22-.36,0-.13-.06-.22-.17-.29-.12-.06-.27-.11-.46-.15-.19-.03-.4-.07-.63-.1s-.46-.08-.7-.14c-.23-.06-.44-.15-.64-.26-.2-.11-.35-.26-.47-.46-.12-.19-.17-.44-.17-.75,0-.34.1-.64.3-.9.2-.26.48-.47.85-.62.37-.15.81-.22,1.33-.22.37,0,.75.04,1.12.12.38.08.69.2.96.34l-.53,1.11c-.25-.15-.51-.25-.78-.31-.26-.06-.51-.09-.75-.09-.36,0-.62.05-.78.14-.16.09-.24.21-.24.36,0,.13.06.23.18.3.12.07.28.12.47.16.19.03.41.07.64.1.23.03.46.08.69.14s.44.15.63.25c.2.11.35.26.47.46.12.19.17.44.17.75,0,.33-.1.62-.3.88s-.49.46-.87.6-.83.22-1.38.22Z"/>
      <path class="cls-3" d="M53.16,17.45c-.58,0-1.09-.12-1.54-.36-.45-.24-.8-.56-1.06-.98-.26-.42-.38-.9-.38-1.43s.13-1.02.38-1.43c.26-.41.61-.74,1.06-.98.45-.24.97-.36,1.54-.36s1.06.12,1.49.35.73.57.92,1l-1.2.66c-.15-.25-.32-.44-.53-.56-.21-.12-.43-.17-.68-.17-.26,0-.5.06-.71.17-.21.12-.38.29-.51.5-.13.22-.19.49-.19.8s.06.58.19.81c.13.22.3.39.51.51.21.12.45.17.71.17s.47-.06.68-.17c.21-.12.38-.31.53-.57l1.2.66c-.19.43-.49.76-.92,1s-.92.36-1.49.36Z"/>
      <path class="cls-3" d="M59.02,17.45c-.57,0-1.07-.12-1.52-.36s-.79-.57-1.04-.99c-.25-.42-.38-.89-.38-1.42s.13-1.02.38-1.44c.25-.42.6-.74,1.04-.98s.95-.35,1.52-.35,1.08.12,1.53.35c.45.24.8.56,1.05.98.25.42.38.9.38,1.44s-.13,1.02-.38,1.43c-.25.41-.6.74-1.05.98-.45.24-.96.36-1.53.36ZM59.02,16.17c.27,0,.5-.06.71-.17.2-.12.37-.29.49-.52.12-.23.19-.49.19-.8s-.06-.58-.19-.8c-.12-.22-.29-.39-.49-.5-.2-.12-.44-.17-.7-.17s-.49.06-.7.17c-.21.12-.37.29-.5.5-.12.22-.18.49-.18.8s.06.57.18.8c.12.23.29.4.5.52.21.12.44.17.69.17Z"/>
      <path class="cls-3" d="M63.02,17.37v-5.38h1.49v1.53l-.21-.45c.16-.38.42-.67.77-.87.35-.2.78-.29,1.29-.29v1.45c-.06-.01-.12-.02-.18-.03-.06,0-.11,0-.16,0-.44,0-.79.12-1.05.37-.26.25-.39.63-.39,1.14v2.54h-1.56Z"/>
      <path class="cls-3" d="M69.64,17.45c-.51,0-.96-.12-1.37-.35-.41-.23-.73-.55-.96-.96-.23-.41-.35-.9-.35-1.46s.12-1.05.35-1.46c.23-.41.55-.73.96-.97.41-.23.86-.34,1.37-.34.45,0,.85.1,1.19.3.34.2.6.5.79.91s.28.93.28,1.56-.09,1.15-.27,1.56c-.18.41-.44.72-.77.92-.34.2-.74.29-1.22.29ZM69.9,16.17c.26,0,.49-.06.7-.17.21-.12.37-.29.49-.52.12-.23.19-.49.19-.8s-.06-.58-.19-.8c-.12-.22-.29-.39-.49-.5-.21-.12-.44-.17-.7-.17s-.48.06-.69.17c-.21.12-.37.29-.5.5-.12.22-.18.49-.18.8s.06.57.18.8c.12.23.29.4.5.52.21.12.44.17.69.17ZM71.32,17.37v-1.1l.03-1.6-.1-1.59v-3.13h1.56v7.42h-1.49Z"/>
    </g>
  </g>
  <path class="cls-3" d="M24.37,15.44c-.51,0-.94-.47-.94-1.05s.41-1.05.94-1.05.94.48.94,1.05-.41,1.05-.94,1.05ZM20.92,15.44c-.51,0-.94-.47-.94-1.05s.41-1.05.94-1.05.94.48.94,1.05-.41,1.05-.94,1.05h0ZM26.25,10.69c-.67-.31-1.39-.53-2.12-.66-.01,0-.03,0-.03.02-.1.18-.19.36-.26.54-.79-.12-1.59-.12-2.38,0-.08-.19-.17-.37-.27-.54,0-.01-.02-.02-.03-.02-.73.13-1.44.35-2.12.66,0,0-.01,0-.01.01-1.35,2.02-1.72,3.98-1.54,5.93,0,0,0,.02.01.02.79.58,1.66,1.03,2.6,1.31.01,0,.03,0,.04-.01.2-.27.38-.56.53-.86,0-.02,0-.04-.02-.04,0,0,0,0,0,0-.28-.11-.55-.24-.81-.39-.02,0-.02-.03-.01-.05,0,0,0,0,.01-.01.06-.04.11-.08.16-.13,0,0,.02,0,.03,0,1.7.78,3.55.78,5.23,0,.01,0,.02,0,.03,0,.05.04.11.09.16.13.02.01.02.03,0,.05,0,0,0,0-.01.01-.26.15-.53.28-.81.38-.02,0-.03.03-.02.04,0,0,0,0,0,0,.16.3.33.59.53.86,0,.01.02.02.04.01.94-.29,1.82-.73,2.6-1.31,0,0,.01-.01.01-.02.22-2.24-.36-4.2-1.54-5.93,0,0,0,0-.01-.01h0Z"/>
</svg>