<?xml version="1.0" encoding="UTF-8"?>
<svg id="Camada_2" data-name="Camada 2" xmlns="http://www.w3.org/2000/svg" viewBox="0 0 91 28">
  <defs>
    <style>
      .cls-1 {
        isolation: isolate;
      }

      .cls-2, .cls-3 {
        fill: #ff4500;
      }

      .cls-2, .cls-4 {
        stroke-width: 0px;
      }

      .cls-3 {
        stroke: #fff;
        stroke-miterlimit: 10;
        stroke-width: .5px;
      }

      .cls-4 {
        fill: #fff;
      }
    </style>
  </defs>
  <g shape-rendering="crispEdges">
    <rect class="cls-2" width="91" height="28"/>
  </g>
  <g text-rendering="geometricPrecision">
    <g class="cls-1">
      <path class="cls-4" d="M36.81,17.37v-7h3.03c.63,0,1.17.1,1.62.31.45.2.8.49,1.05.88.25.38.37.83.37,1.35s-.12.98-.37,1.35c-.25.38-.6.66-1.05.86-.45.2-.99.29-1.62.29h-2.14l.74-.7v2.66h-1.63ZM38.44,14.88l-.74-.77h2.05c.49,0,.87-.11,1.12-.32s.38-.51.38-.9-.13-.68-.38-.9c-.25-.21-.63-.31-1.12-.31h-2.05l.74-.77v3.97ZM41.27,17.37l-1.76-2.54h1.74l1.76,2.54h-1.74Z"/>
      <path class="cls-4" d="M46.72,17.45c-.61,0-1.15-.12-1.61-.36-.46-.24-.82-.57-1.07-.99-.25-.42-.38-.89-.38-1.42s.12-1.01.37-1.43c.24-.42.58-.75,1.02-.98s.93-.35,1.47-.35,1,.11,1.43.34c.42.23.76.55,1,.96.25.41.37.91.37,1.49,0,.06,0,.13,0,.21,0,.08-.01.15-.02.22h-4.37v-.91h3.55l-.61.27c0-.28-.05-.52-.16-.73-.11-.21-.27-.37-.47-.48-.2-.12-.43-.17-.7-.17s-.5.06-.71.17c-.2.12-.36.28-.48.49-.11.21-.17.46-.17.75v.24c0,.3.07.56.2.78.13.22.32.39.55.5s.51.18.84.18c.28,0,.53-.04.75-.13.22-.09.41-.22.59-.39l.83.9c-.25.28-.56.5-.93.64-.37.15-.8.23-1.29.23Z"/>
      <path class="cls-4" d="M52.67,17.45c-.51,0-.96-.12-1.37-.35-.41-.23-.73-.55-.96-.96-.23-.41-.35-.9-.35-1.46s.12-1.05.35-1.46c.23-.41.55-.73.96-.97.41-.23.86-.34,1.37-.34.45,0,.85.1,1.19.3.34.2.6.5.79.91.19.41.28.93.28,1.56s-.09,1.15-.27,1.56c-.18.41-.44.72-.78.92-.34.2-.74.29-1.21.29ZM52.93,16.17c.26,0,.49-.06.7-.17.21-.12.37-.29.49-.52.12-.23.19-.49.19-.8s-.06-.58-.19-.8c-.12-.22-.29-.39-.49-.5-.21-.12-.44-.17-.7-.17s-.48.06-.69.17c-.21.12-.37.29-.5.5-.12.22-.18.49-.18.8s.06.57.18.8c.12.23.29.4.5.52.21.12.44.17.69.17ZM54.35,17.37v-1.1l.03-1.6-.1-1.59v-3.13h1.56v7.42h-1.49Z"/>
      <path class="cls-4" d="M59.59,17.45c-.51,0-.96-.12-1.37-.35-.41-.23-.73-.55-.96-.96-.23-.41-.35-.9-.35-1.46s.12-1.05.35-1.46c.23-.41.55-.73.96-.97.41-.23.86-.34,1.37-.34.45,0,.85.1,1.19.3.34.2.6.5.79.91.19.41.28.93.28,1.56s-.09,1.15-.27,1.56c-.18.41-.44.72-.78.92-.34.2-.74.29-1.21.29ZM59.85,16.17c.26,0,.49-.06.7-.17.21-.12.37-.29.49-.52.12-.23.19-.49.19-.8s-.06-.58-.19-.8c-.12-.22-.29-.39-.49-.5-.21-.12-.44-.17-.7-.17s-.48.06-.69.17c-.21.12-.37.29-.5.5-.12.22-.18.49-.18.8s.06.57.18.8c.12.23.29.4.5.52.21.12.44.17.69.17ZM61.27,17.37v-1.1l.03-1.6-.1-1.59v-3.13h1.56v7.42h-1.49Z"/>
      <path class="cls-4" d="M64.98,11.23c-.29,0-.53-.08-.71-.25-.18-.17-.27-.37-.27-.62s.09-.45.27-.62c.18-.17.42-.25.71-.25s.52.08.71.24c.18.16.27.36.27.6,0,.26-.09.47-.27.65-.18.17-.42.25-.71.25ZM64.2,17.37v-5.38h1.56v5.38h-1.56Z"/>
      <path class="cls-4" d="M66.57,13.3v-1.2h3.73v1.2h-3.73ZM69.41,17.45c-.63,0-1.13-.16-1.48-.49s-.53-.8-.53-1.45v-4.72h1.57v4.69c0,.23.06.4.17.53.12.13.28.19.47.19.25,0,.47-.07.64-.2l.41,1.1c-.15.11-.34.2-.56.25-.22.06-.46.08-.7.08Z"/>
    </g>
  </g>
  <g>
    <circle class="cls-3" cx="25.32" cy="14" r="5.22"/>
    <path class="cls-4" d="M28.8,14c0-.42-.34-.76-.76-.76-.21,0-.39.08-.53.21-.52-.37-1.24-.62-2.04-.65l.35-1.63,1.13.24c.01.29.25.52.54.52s.54-.24.54-.54-.24-.54-.54-.54c-.21,0-.4.12-.49.31l-1.26-.27s-.07,0-.1.02c-.03.02-.05.05-.06.09l-.39,1.82c-.81.02-1.54.27-2.07.65-.14-.14-.33-.21-.53-.21-.42,0-.76.34-.76.76,0,.31.19.57.45.69-.01.07-.02.15-.02.23,0,1.17,1.36,2.12,3.05,2.12s3.05-.95,3.05-2.12c0-.07,0-.16-.02-.23.26-.12.45-.39.45-.7h0ZM23.58,14.54c0-.3.24-.54.54-.54s.54.24.54.54-.24.54-.54.54c-.3,0-.54-.24-.54-.54ZM26.61,15.98c-.37.37-1.08.4-1.29.4s-.92-.03-1.29-.4c-.06-.06-.06-.14,0-.2.06-.06.14-.06.2,0,.24.24.74.32,1.09.32s.86-.08,1.09-.32c.06-.06.14-.06.2,0,.05.06.05.14,0,.2ZM26.52,15.09c-.3,0-.54-.24-.54-.54s.24-.54.54-.54.54.24.54.54-.24.54-.54.54Z"/>
  </g>
</svg>