<?xml version="1.0" encoding="UTF-8"?>
<svg id="Camada_2" data-name="Camada 2" xmlns="http://www.w3.org/2000/svg" viewBox="0 0 91 28">
  <defs>
    <style>
      .cls-1 {
        fill: #0073af;
        stroke: #fff;
        stroke-miterlimit: 10;
        stroke-width: .5px;
      }

      .cls-2 {
        fill: #0077b5;
      }

      .cls-2, .cls-3, .cls-4 {
        stroke-width: 0px;
      }

      .cls-5 {
        isolation: isolate;
      }

      .cls-3 {
        fill: #fff;
      }

      .cls-4 {
        fill: #fefefe;
      }
    </style>
  </defs>
  <g shape-rendering="crispEdges">
    <rect class="cls-2" width="91" height="28"/>
  </g>
  <g text-rendering="geometricPrecision">
    <g class="cls-5">
      <path class="cls-3" d="M31.24,17.37v-7h1.63v5.68h3.49v1.32h-5.12Z"/>
      <path class="cls-3" d="M37.95,11.23c-.29,0-.53-.08-.71-.25-.18-.17-.27-.37-.27-.62s.09-.45.27-.62c.18-.17.42-.25.71-.25s.52.08.71.24c.18.16.28.36.28.6,0,.26-.09.47-.27.65-.18.17-.42.25-.71.25ZM37.17,17.37v-5.38h1.56v5.38h-1.56Z"/>
      <path class="cls-3" d="M43.45,11.9c.43,0,.81.08,1.14.25.34.17.6.43.8.78.19.35.29.8.29,1.34v3.08h-1.56v-2.84c0-.43-.09-.75-.29-.96-.19-.21-.46-.31-.8-.31-.25,0-.47.05-.67.16-.2.11-.35.26-.46.47s-.17.48-.17.82v2.66h-1.56v-5.38h1.49v1.49l-.28-.45c.19-.36.47-.64.83-.83.36-.19.77-.29,1.23-.29Z"/>
      <path class="cls-3" d="M47.09,17.37v-7.42h1.56v7.42h-1.56ZM48.38,16.26l.04-1.91,2.51-2.37h1.86l-2.41,2.45-.81.67-1.19,1.16ZM51.1,17.37l-1.82-2.26.98-1.21,2.73,3.47h-1.89Z"/>
      <path class="cls-3" d="M56.36,17.45c-.61,0-1.15-.12-1.61-.36-.46-.24-.82-.57-1.07-.99-.25-.42-.38-.89-.38-1.42s.12-1.01.36-1.43c.24-.42.58-.75,1.02-.98s.93-.35,1.47-.35,1,.11,1.43.34c.42.23.76.55,1,.96.25.41.37.91.37,1.49,0,.06,0,.13-.01.21s-.01.15-.02.22h-4.37v-.91h3.55l-.61.27c0-.28-.05-.52-.16-.73-.11-.21-.27-.37-.47-.48-.2-.12-.43-.17-.7-.17s-.5.06-.71.17c-.2.12-.36.28-.48.49-.11.21-.17.46-.17.75v.24c0,.3.07.56.2.78.13.22.32.39.55.5.23.12.51.18.84.18.28,0,.53-.04.75-.13.22-.09.42-.22.59-.39l.83.9c-.25.28-.56.5-.93.65s-.8.23-1.29.23Z"/>
      <path class="cls-3" d="M62.31,17.45c-.51,0-.96-.12-1.37-.35s-.73-.55-.96-.96c-.23-.41-.35-.9-.35-1.46s.12-1.05.35-1.46.55-.73.96-.97c.41-.23.86-.34,1.37-.34.45,0,.85.1,1.19.3.34.2.6.5.79.91.19.41.28.93.28,1.56s-.09,1.15-.27,1.56c-.18.41-.44.72-.78.92-.34.2-.74.29-1.21.29ZM62.57,16.16c.26,0,.49-.06.7-.17.21-.12.37-.29.5-.52.12-.23.18-.49.18-.8s-.06-.58-.18-.8c-.12-.22-.29-.39-.5-.5-.21-.12-.44-.17-.7-.17s-.48.06-.69.17c-.21.12-.37.29-.5.5-.12.22-.19.49-.19.8s.06.57.19.8c.12.23.29.4.5.52.21.12.44.17.69.17ZM63.99,17.37v-1.1l.03-1.6-.1-1.59v-3.13h1.56v7.42h-1.49Z"/>
      <path class="cls-3" d="M67.7,11.23c-.29,0-.53-.08-.71-.25-.18-.17-.27-.37-.27-.62s.09-.45.27-.62c.18-.17.42-.25.71-.25s.52.08.71.24c.18.16.28.36.28.6,0,.26-.09.47-.27.65-.18.17-.42.25-.71.25ZM66.92,17.37v-5.38h1.56v5.38h-1.56Z"/>
      <path class="cls-3" d="M73.2,11.9c.43,0,.81.08,1.14.25.34.17.6.43.8.78.19.35.29.8.29,1.34v3.08h-1.56v-2.84c0-.43-.09-.75-.29-.96-.19-.21-.46-.31-.8-.31-.25,0-.47.05-.67.16-.2.11-.35.26-.46.47s-.17.48-.17.82v2.66h-1.56v-5.38h1.49v1.49l-.28-.45c.19-.36.47-.64.83-.83.36-.19.77-.29,1.23-.29Z"/>
    </g>
  </g>
  <g>
    <path class="cls-1" d="M15.3,18.96s-.07-.02-.11-.03c-.23-.08-.36-.25-.41-.48-.02-.08-.02-.16-.02-.24,0-2.82,0-5.63,0-8.45,0-.4.32-.72.71-.73.02,0,.04,0,.06,0,2.8,0,5.61,0,8.41,0,.29,0,.51.12.66.37.05.08.06.17.09.25v8.66c-.05.26-.22.43-.44.55-.1.05-.2.07-.31.1h-8.64Z"/>
    <path class="cls-4" d="M19.9,13.5c.06-.11.15-.2.24-.28.26-.22.57-.36.9-.42.41-.07.82-.05,1.22.07.48.15.76.49.9.96.09.32.12.65.12.98,0,.89,0,1.78,0,2.68,0,.04-.01.05-.05.05-.44,0-.88,0-1.32,0-.04,0-.05-.01-.05-.05,0-.76,0-1.53,0-2.29,0-.24-.03-.48-.12-.7-.11-.25-.27-.43-.55-.48-.48-.08-.99.1-1.16.72-.05.18-.06.37-.06.56,0,.73,0,1.45,0,2.18,0,.05-.01.07-.06.07-.43,0-.87,0-1.3,0-.04,0-.06,0-.06-.05,0-1.54,0-3.08,0-4.62,0-.05.02-.06.06-.06.41,0,.81,0,1.22,0,.05,0,.06.01.06.06,0,.19,0,.37,0,.56v.05s0,0,.01,0Z"/>
    <path class="cls-4" d="M17.6,15.18c0,.77,0,1.53,0,2.3,0,.05,0,.07-.06.07-.43,0-.87,0-1.3,0-.05,0-.06-.01-.06-.06,0-1.54,0-3.07,0-4.61,0-.05.01-.06.06-.06.43,0,.87,0,1.3,0,.05,0,.06.01.06.06,0,.77,0,1.54,0,2.31Z"/>
    <path class="cls-4" d="M17.78,11.16c0,.49-.4.89-.89.89-.49,0-.89-.4-.89-.89,0-.49.4-.89.89-.89.49,0,.89.4.89.89Z"/>
  </g>
</svg>